<?xml version="1.0" encoding="utf-8"?>
<!-- Generator: Adobe Illustrator 24.0.2, SVG Export Plug-In . SVG Version: 6.00 Build 0)  -->
<svg version="1.1" id="ad467010-4b2c-4db1-84f0-cd2022f75deb"
	 xmlns="http://www.w3.org/2000/svg" xmlns:xlink="http://www.w3.org/1999/xlink" x="0px" y="0px" viewBox="0 0 600.1 649.5"
	 style="enable-background:new 0 0 600.1 649.5;" xml:space="preserve">
<style type="text/css">
	.st0{opacity:0.1;fill:#6C63FF;enable-background:new    ;}
	.st1{fill:#CED7E7;}
	.st2{opacity:0.1;enable-background:new    ;}
	.st3{fill:#FED253;}
	.st4{fill:#FFA2A2;}
	.st5{opacity:5.000000e-02;enable-background:new    ;}
	.st6{fill:#63667E;}
	.st7{fill:#896363;}
	.st8{opacity:0.1;}
	.st9{fill:#6C63FF;}
</style>
<title>QA engineers</title>
<rect x="345.6" y="581" class="st0" width="150" height="19.4"/>
<rect x="137.6" y="272.7" class="st0" width="27.9" height="27.9"/>
<rect x="137.6" y="337.5" class="st0" width="27.9" height="27.9"/>
<rect x="137.6" y="402.3" class="st0" width="27.9" height="27.9"/>
<rect x="137.6" y="467.1" class="st0" width="27.9" height="27.9"/>
<rect x="137.6" y="531.9" class="st0" width="27.9" height="27.9"/>
<rect x="137.6" y="596.7" class="st0" width="27.9" height="27.9"/>
<path class="st0" d="M73.2,629.2c0.9,0.5,1.8,1,2.7,1.5v-0.5h7.8v4.4l1.7,0.8v-5.2h7.8v8.5l1.7,0.6v-9.1h8.3v12l1.7,0.5v-13.5H73.2z
	"/>
<path class="st0" d="M339.5,293.2c0,0-8.1,22.4,8.7,24.5c1.6,0.8,3.5,0.5,4.7-0.8c0,0-1.2-0.4-0.1-2.6c0.4-0.8,0.7-1.6,0.9-2.4
	c0.3-1.1,0.1-2.3-0.4-3.4l0,0c0,0-0.8-7.2-10.5-12.8c0,0-1.7-2.5-2.4-2.6l0.5,4.4c0,0,3.2-0.5,5.2,1.2c0,0-5-1.4-5.1-0.6
	c0,0.1,0.4,2.3,0.4,2.3s5.5-0.8,8.5,1.9c0,0-5.8-2.4-8.4-1.1l0.8,3.2c0,0,5.8-1.2,9.3,1.8c0,0-6.1-2.3-9.1-1.1l1.2,3
	c0,0,5.7-1,8.6,1.5c0,0-7.4-2-8.3-0.8c0.5,1.2,1.2,2.3,1.9,3.3c0,0,4.1-0.6,5.7,1c0,0-5-0.8-5.2-0.3c0,0,2.6,3.1,4.7,4
	c-2-0.7-3.8-1.9-5.2-3.5c-0.1,1.3,0.1,2.6,0.7,3.8c0,0-2.2-1-1.4-4.5c0,0-1.9-2.5-1.9-3c0,0-1.3,3.4-1,5.8c0,0-1.6-2.5,0.7-6.5
	l-1.3-3c0,0-2,4.4-1.9,6.5c0,0-1.2-2.8,1.6-7.3l-0.8-3.1c-1,1.9-1.8,3.9-2.4,6c0,0-0.6-2.8,2.2-6.9l-0.3-2.1c0,0-1.4,2.7-1.7,3.5
	s-0.6,0.8-0.6,0.8c0.2-1.9,1-3.7,2.2-5.2C340.1,297.7,339.8,293.2,339.5,293.2z"/>
<path class="st0" d="M271.7,457.8c0,0-8.1,22.5,8.7,24.5c1.6,0.8,3.5,0.4,4.7-0.8c0,0-1.2-0.4-0.1-2.6c0.4-0.8,0.7-1.6,0.9-2.5
	c0.3-1.1,0.1-2.3-0.4-3.4l0,0c0,0-0.8-7.2-10.5-12.8c0,0-1.7-2.5-2.4-2.6l0.5,4.3c0,0,3.2-0.5,5.2,1.2c0,0-5-1.3-5.1-0.6
	c0,0.2,0.4,2.3,0.4,2.3s5.5-0.8,8.5,1.9c0,0-5.8-2.4-8.4-1.1l0.8,3.2c0,0,5.8-1.2,9.3,1.8c0,0-6.1-2.3-9.1-1.2l1.2,3
	c0,0,5.7-1,8.6,1.5c0,0-7.4-2-8.3-0.8c0.5,1.2,1.2,2.3,1.9,3.3c0,0,4.1-0.7,5.7,1c0,0-5.1-0.8-5.2-0.3c0,0,2.6,3.1,4.7,4
	c-2-0.7-3.8-1.9-5.2-3.5c-0.1,1.3,0.1,2.6,0.7,3.8c0,0-2.2-1-1.4-4.5c0,0-1.9-2.5-1.9-3c0,0-1.3,3.4-1,5.8c0,0-1.6-2.5,0.7-6.5
	l-1.3-3c0,0-2,4.4-1.9,6.5c0,0-1.2-2.8,1.6-7.3l-0.8-3.1c-1,1.9-1.8,3.9-2.4,6c0,0-0.6-2.8,2.2-6.9l-0.3-2.2c0,0-1.4,2.7-1.7,3.5
	s-0.6,0.8-0.6,0.8c0.2-1.9,1-3.7,2.2-5.2C272.3,462.3,271.9,457.8,271.7,457.8z"/>
<path class="st0" d="M239.3,246.2c0,0-8.1,22.4,8.7,24.5c1.6,0.8,3.5,0.4,4.7-0.8c0,0-1.2-0.4-0.1-2.6c0.4-0.8,0.7-1.6,0.9-2.5
	c0.3-1.1,0.1-2.3-0.4-3.4l0,0c0,0-0.8-7.2-10.5-12.8c0,0-1.7-2.5-2.4-2.6l0.5,4.4c0,0,3.2-0.5,5.2,1.2c0,0-5-1.4-5.1-0.6
	c0,0.1,0.4,2.3,0.4,2.3s5.5-0.8,8.5,1.9c0,0-5.8-2.4-8.4-1.1l0.8,3.2c0,0,5.8-1.2,9.4,1.8c0,0-6.1-2.3-9.1-1.1l1.2,3
	c0,0,5.7-1,8.6,1.5c0,0-7.4-2-8.3-0.8c0.5,1.2,1.2,2.3,1.9,3.3c0,0,4.1-0.6,5.7,1c0,0-5-0.8-5.2-0.3c0,0,2.6,3.1,4.7,4
	c-2-0.7-3.8-1.9-5.2-3.5c-0.1,1.3,0.1,2.6,0.7,3.8c0,0-2.2-1-1.3-4.5c0,0-1.9-2.5-1.9-3c0,0-1.3,3.4-1,5.8c0,0-1.6-2.5,0.7-6.5
	l-1.3-3c0,0-2,4.4-1.9,6.5c0,0-1.2-2.8,1.6-7.3l-0.8-3.1c-1,1.9-1.8,3.9-2.4,6c0,0-0.6-2.8,2.2-6.9l-0.3-2.1c0,0-1.4,2.7-1.7,3.5
	s-0.6,0.8-0.6,0.8c0.2-1.9,1-3.7,2.2-5.2C239.9,250.7,239.6,246.2,239.3,246.2z"/>
<path class="st0" d="M299.8,368.4c0,0,6.3,23,21.2,15c1.7-0.3,3.1-1.6,3.4-3.4c0,0-1.2,0.4-1.5-2c-0.1-0.9-0.4-1.7-0.7-2.5
	c-0.4-1.1-1.2-2-2.2-2.6l0,0c0,0-4.8-5.5-16-4.4c0,0-2.9-1-3.4-0.8l2.9,3.2c0,0,2.3-2.2,4.9-2c0,0-4.9,1.8-4.5,2.5
	c0.1,0.1,1.6,1.7,1.6,1.7s4-3.9,8.1-3.4c0,0-6.1,1.4-7.5,3.9l2.5,2.1c0,0,4.1-4.3,8.7-3.9c0,0-6.4,1.6-8.1,4.3l2.7,1.8
	c0,0,4-4.1,7.9-3.7c0,0-7.1,2.6-7.2,4.1c1.1,0.7,2.3,1.2,3.5,1.5c0,0,3-2.9,5.2-2.5c0,0-4.6,2.3-4.4,2.8c0,0,3.9,1,6.1,0.5
	c-2,0.6-4.2,0.6-6.3,0.1c0.6,1.1,1.6,2.1,2.8,2.7c0,0-2.4,0.4-3.7-2.9c0,0-3-0.9-3.3-1.4c0,0,0.9,3.5,2.5,5.3c0,0-2.7-1.1-3.2-5.7
	l-2.8-1.7c0,0,0.9,4.7,2.2,6.4c0,0-2.6-1.6-2.9-6.9l-2.4-2.1c0.2,2.2,0.8,4.3,1.5,6.3c0,0-2.1-2-2.2-6.9l-1.5-1.6c0,0,0.4,3,0.6,3.9
	s0,1,0,1c-0.9-1.7-1.3-3.6-1.2-5.5C302.8,371.7,300,368.2,299.8,368.4z"/>
<path class="st1" d="M406.4,619.9c0,0,51.9-17.5,41.1-79.4l-65.9-17.1l-15.3,50.8L406.4,619.9z"/>
<path class="st2" d="M366.3,574.2l40,45.7c0,0,51.9-17.5,41.1-79.4L366.3,574.2z"/>
<path class="st3" d="M148.3,116.9c0,0,7,11.4,16.6,5.7c9.6-5.7,0.4-21.4,0.4-21.4S147,98.7,148.3,116.9z"/>
<path class="st2" d="M164.9,122.6c-2.3,1.5-5.1,1.9-7.7,1.3c-3.5-0.9-6.2-3.6-7.7-5.4c-0.4-0.5-0.8-1.1-1.2-1.6
	c-0.5-6.5,1.5-10.4,4.3-12.6l0,0c3.9-3.1,9.2-3.3,11.5-3.2c0.7,0,1.1,0.1,1.1,0.1l0.2,0.3c0.3,0.5,0.9,1.6,1.5,3.1
	C169.1,109.6,171.6,118.6,164.9,122.6z"/>
<path class="st4" d="M411.5,537.6l36,2.9l67,0.5l-52.8,65c0,0-16.8,0.9-20.2,3.3s-51.9,1.1-51.9,1.1l-7.8-33.3L411.5,537.6z"/>
<path class="st5" d="M411.5,537.6l36,2.9l67,0.5l-52.8,65c0,0-16.8,0.9-20.2,3.3s-51.9,1.1-51.9,1.1l-7.8-33.3L411.5,537.6z"/>
<path class="st1" d="M375.1,362.9l8.4,14.2l1.8,24.8c0,0,5.8,21.1,10.2,27.3s6.2,22.6,6.2,22.6s1.8,15.3,4,18.6s5.1,27,5.1,27
	s19.3,38.6,36.8,43.3c0,0-86.6,28.4-41.1,79.4c0,0-32.4,8-40-1.1s-27.7-143.8-27.7-143.8l6.2-113.6L375.1,362.9z"/>
<path class="st5" d="M375.1,362.9l8.4,14.2l1.8,24.8c0,0,5.8,21.1,10.2,27.3s6.2,22.6,6.2,22.6s1.8,15.3,4,18.6s5.1,27,5.1,27
	s19.3,38.6,36.8,43.3c0,0-86.6,28.4-41.1,79.4c0,0-32.4,8-40-1.1s-27.7-143.8-27.7-143.8l6.2-113.6L375.1,362.9z"/>
<path class="st4" d="M270,224.5c-2.4,12.6-1.7,25.6,2.1,37.9L258.6,301c0,0-102.7-57.2-93.9-71c4.9-7.9,5.6-28.6,5.2-45.1
	c-0.3-12.5-1.2-22.6-1.2-22.6s126,12.4,109.2,41.1C274.1,209.9,271.4,217.1,270,224.5z"/>
<path class="st2" d="M277.9,203.4c-3.8,6.5-6.5,13.7-7.9,21.1c-38.6,12.3-80.5-4.3-100.1-39.6c-0.3-12.5-1.2-22.6-1.2-22.6
	S294.6,174.6,277.9,203.4z"/>
<path class="st4" d="M328.8,141.5c0,46.9-37.9,84.9-84.8,84.9c-46.9,0-84.9-37.9-84.9-84.8c0-17.6,5.4-34.8,15.6-49.1
	c1.2-1.7,2.5-3.3,3.8-4.9c7.6-9.2,17-16.7,27.6-22l0,0c5.8-2.9,11.9-5.1,18.1-6.6c45.7-10.8,91.5,17.4,102.3,63.1
	c0.5,1.9,0.8,3.9,1.2,5.8C328.5,132.4,328.9,137,328.8,141.5z"/>
<path class="st1" d="M362.3,490.3c-1.3,6.8,0.3,19.2,2.7,31.8c0.1,0.5,0.2,1.1,0.3,1.7s0.3,1.4,0.4,2.1c1.1,5.4,2.3,10.8,3.5,15.7
	s2.2,9.1,3.1,12.5c1.4,5.2,2.3,8.4,2.3,8.4s0.1,3.2,0.3,8.2c0.1,2.9,0.2,6.5,0.3,10.4c0,1.1,0.1,2.3,0.1,3.5c0,2.1,0.1,4.3,0.1,6.5
	c0,0.7,0,1.4,0,2.2c0,2.4,0.1,4.8,0.1,7.3c0,3.3,0.1,6.7,0.1,9.9c0,1.2,0,2.5,0,3.7c0,3.1,0,6.1,0,8.8c-0.1,7.8-0.4,13.6-1.1,15.3
	c-0.2,0.6-0.4,1.2-0.6,1.9c-0.9,3.1-1.5,6.3-1.9,9.5l-1.7-1.4c-3.2-2.7-6.5-5.4-9.7-8.1c-5.4-4.6-11.2-8.7-17.3-12.4
	c-0.4-0.2-0.8-0.5-1.2-0.7c-1.1-0.7-2.3-1.3-3.4-1.8c-2.4-1.2-4.8-2.3-7.3-3.2c-11.5-4.4-23.9-6-36.5-5.7c-5,1.9-8.2,3.3-8.2,3.3
	l-6.4,1.9l-1.1,0.3c-6.9,2.1-16.6,5.1-20.1,6.3c-5.6,2-54.6,12.2-54.6,12.2c-4.5,1.2-9,2.1-13.7,2.5c-8.4,2.4-17,4.2-25.6,5.4
	c-19.7,2.5-39.6,0.9-58.6-4.7c-0.6,0-1.1,0-1.7,0c0.4,0,0.7-0.1,1-0.1l-1.2-0.4l-1.7-0.5c-2.8-0.9-5.6-1.8-8.3-2.9l-1.7-0.6
	c-2.7-1-5.3-2.1-7.8-3.3l-1.7-0.8c-2.7-1.2-5.3-2.5-7.8-3.9c-0.9-0.5-1.8-1-2.7-1.5c-2.7-1.5-5.4-3.1-8-4.8
	c-0.4-3.8-0.7-6.3-0.7-6.3l-3.9-19.4l-0.2-1l-2.8-14l-0.2-1l-6.1-30.5l-0.2-1l-2.8-14l-0.2-1L42,505.8l-0.2-1l-2.8-14l-0.2-1
	l-6.1-30.5l-0.2-1l-2.8-14l-0.2-1l-1.1-5.5l-1.7-8.3c0,0-5.3-7.6-11.3-16.6l-0.7-1c-1.7-2.5-3.5-5.2-5.2-7.7
	c-0.6-0.9-1.1-1.7-1.7-2.5c-0.8-1.3-1.6-2.5-2.4-3.7l-0.5-0.8l-0.1-0.2c-8.6-13.3-2.9-19.1-2.9-19.1s3.6-4.9,8.3-11.4
	c0.2-0.3,0.5-0.7,0.7-1c2-2.8,4.2-5.9,6.4-8.9l1.7-2.4c0.6-0.9,1.2-1.8,1.8-2.7c0.2-0.3,0.5-0.7,0.7-1c4.6-6.7,8.4-12.5,9.2-14.5
	c1.2-3.2,9-12.9,16.7-21.3c6.1-6.7,12.2-12.6,14.9-14c6.2-3.3,8.7-13.8,8.7-13.8s13.5-4.7,15.3-8.4s27.3-20,27.3-20
	s10.3-6.6,14.5-10.6c0.6-0.5,1.1-1.1,1.5-1.8c1.4-2.6,10.9-4.7,14.8-5.5c1-0.2,1.6-0.3,1.6-0.3c1.6-2.8,3.5-5.4,5.8-7.6
	c1.6-1.4,3.5-6.2,5.2-10.8c1.8-5.1,3.2-9.9,3.2-9.9c2.9-9.8,8.7-6.9,8.7-6.9c0,1.3,0.1,2.7,0.4,4l0,0c2.4,12,15.6,17,22.6,22.6
	c7.6,6.2,19.7,22.2,29.1,25.5c7.8,2.7,16.9,12.9,19.8,16.3l0.2,0.3c0.5,0.6,0.7,0.9,0.7,0.9s5.4-0.3,8.6-0.3h1.2
	c0.7-0.1,1.3-0.3,1.8-0.7c3.2-2.2,8.1-8.7,10.2-10.2c2.5-1.8,5.1-31.3,5.1-31.3l0.1-0.1c9.1-4.2,18.8,38.3,18.8,38.3
	s17.1,5.1,18.6,8.7c0.3,0.7,1.6,2,3.5,3.5c8.8,6.8,18.2,12.7,28.1,17.9c0.2,0.1,0.4,0.2,0.6,0.3c0.2,0.1,0.4,0.2,0.6,0.3
	c0.4,0.2,0.7,0.3,1.1,0.5c0.5,0.2,1,0.4,1.5,0.6l0.6,0.2c1.4,0.5,2.8,1.2,4,2.1c0.4,0.3,0.7,0.5,1.1,0.8c1.4,1.1,2.6,2.4,3.7,3.8
	c0.2,0.2,0.3,0.4,0.5,0.6l0,0c0.8,1,1.4,1.9,2,2.8c0.9,1.3,1.8,2.7,2.5,4.2c0,0,14.9,25.5,19.7,28.4s7.6,32.4,7.6,32.4l0,0l-16,59.3
	c0,0-0.8,15-2.1,30.3C364.5,475.3,363.5,484,362.3,490.3z"/>
<path class="st6" d="M241.8,276.2c0,0-10.7,5.8-19.1,6.4c-1.1,0.1-2.2,0-3.3-0.2c-8.8-1.3-21.7-8.5-21.7-8.5l15.1-16.6l18.4,9.1
	l6.8,6.3L241.8,276.2z"/>
<path class="st2" d="M327.8,127.9c-0.4,0.5-0.8,1-1.3,1.5c-5.3,5-14.6,2.9-21.8,1.8c-6.2-1-12.3-2.8-18.1-5.2
	c-5.1-2.2-11.1-4.8-15.7-1.7c-1.8,1.2-3,3.1-4.8,4.1c-1.8,1-4.1,1.1-6.3,1.1c-7,0-14,0.1-20.8-1.5c-10.2-2.4-20.7-8.4-30.4-4.4
	c-7.6,3.1-11.7,11.3-13.7,19.3c-1,3.9-1.7,8-4,11.3s-6.6,5.6-10.4,4.1c-5.5-2.3-6.3-11.6-12.9-12.1c-7.3-0.5-7.2,7-5.1,12.4
	c3.1,8,7.2,16,7.4,24.3c-15.9-28.6-14.1-63.7,4.8-90.4c1.6-1,2.9-2.5,3.6-4.2c0.1-0.2,0.1-0.5,0.2-0.7c0.6-2.8-1-5.7-1.1-8.6
	c-0.4-7.1,7.4-12.1,14.5-13c4.7-0.6,9.5-0.1,14.2-0.3l0,0c2.4-0.1,4.7-0.4,7-0.9c4-1.2,7.7-3.1,11-5.6
	c45.7-10.8,91.5,17.4,102.3,63.1C327,124,327.4,126,327.8,127.9L327.8,127.9z"/>
<path class="st7" d="M329.5,122c-0.5,2-1.5,3.8-3,5.2c-5.3,5-14.6,2.9-21.8,1.8c-6.2-1-12.3-2.7-18.1-5.2
	c-5.1-2.1-11.1-4.8-15.7-1.7c-1.8,1.2-3,3.1-4.8,4.1s-4.1,1.1-6.3,1.1c-7,0.1-14,0.1-20.8-1.5c-10.2-2.4-20.7-8.4-30.4-4.4
	c-7.6,3.1-11.7,11.3-13.7,19.3c-1,3.9-1.7,8-4,11.3s-6.6,5.6-10.4,4.1c-5.5-2.3-6.3-11.6-12.9-12.1c-7.3-0.5-7.2,7-5.1,12.4
	c3.7,9.5,8.8,18.9,7.1,28.9c-1.6,0-4.4-0.1-6-0.1c1.3-2.1-1.1-4.7-3.5-5.4s-5.2-0.7-7-2.5s-1.8-4.4-1.6-6.8
	c0.4-5.2,1.7-10.2,3.7-14.9c1.3-3,3-6.2,2-9.4c-0.6-1.4-1.3-2.8-2.2-4.1c-2.1-4-1.6-9,0.2-13.1c0.8-1.8,1.3-3.4,1.9-5
	c0.8-2.2,1.9-4.3,3.4-6.2c2.3-2.9,4.5-7.1,2-9.8c-0.6-0.7,0.6-1.1,0.2-2c-0.1-0.1-0.1-0.3-0.1-0.5c-0.1-1.1,0.1-2.1,0.7-3
	c0.1-0.2,0.2-0.5,0.4-0.7c0.1-0.2,0.2-0.4,0.4-0.7c2.2-3.7,5.2-6.9,8.6-9.4c2.2-1.6,4.7-3.1,5.6-5.6c1-3-0.8-6.2-0.9-9.4
	c-0.4-7.1,7.4-12.1,14.5-13s14.4,0.6,21.3-1.2c9.8-2.6,16.7-11.2,25.6-16.1c9.9-5.3,21.6-5.7,31.8-1.1c10.4,4.7,18.2,14.3,29,17.9
	c3.8,1.3,8,1.8,11.5,3.9c4,2.5,6.4,6.8,8.5,11c3.2,6.4,3.8,12.9,6,19.7c1.7,5.4,4.1,12.5,4.4,18.7
	C330.1,118.3,329.9,120.2,329.5,122z"/>
<g class="st8">
	<path d="M163.9,109.5c0.3-1.3,0-2.7-0.8-3.7c0.3,0.8-0.9,1.2-0.2,1.9C163.4,108.2,163.7,108.8,163.9,109.5z"/>
	<path d="M163.1,103.5L163.1,103.5c-0.1,0.3-0.2,0.7-0.2,1.1C163.1,104.2,163.3,103.9,163.1,103.5z"/>
	<path d="M326.8,124.8c-5.3,5-14.6,2.9-21.8,1.8c-6.2-1-12.3-2.8-18.1-5.2c-5.1-2.2-11.1-4.8-15.7-1.7c-1.7,1.2-2.9,3.1-4.8,4.1
		s-4.1,1.1-6.3,1.1c-7,0-14,0.1-20.8-1.5c-10.2-2.4-20.7-8.4-30.4-4.4c-7.6,3.1-11.7,11.3-13.7,19.3c-1,3.9-1.7,8-4,11.3
		s-6.6,5.6-10.4,4.1c-5.5-2.3-6.3-11.6-12.9-12.1c-5.2-0.4-6.6,3.3-6.3,7.4c0.3-3.1,2-5.6,6.3-5.3c6.6,0.5,7.4,9.8,12.9,12.1
		c3.7,1.6,8.1-0.8,10.4-4.1s3-7.4,4-11.3c2-7.9,6.2-16.2,13.7-19.3c9.7-3.9,20.2,2,30.4,4.4c6.8,1.6,13.9,1.5,20.8,1.5
		c2.1,0,4.4-0.1,6.3-1.1s3-2.9,4.8-4.1c4.6-3.1,10.6-0.4,15.7,1.7c5.8,2.5,11.9,4.2,18.1,5.2c7.2,1.2,16.5,3.2,21.8-1.8
		c2.9-2.7,3.7-6.7,3.5-11C330.1,119.4,329.1,122.5,326.8,124.8z"/>
	<path d="M177.8,74.9c-0.1,0.5-0.1,1-0.1,1.5c0.1,2.1,0.9,4.2,1.1,6.2C179.3,80.1,178.1,77.5,177.8,74.9z"/>
	<path d="M157.5,145.9c0.1,0.3,0.1,0.6,0.2,0.9c0.2-1,0.1-2.1-0.2-3.1c-0.6-1.4-1.3-2.8-2.2-4.1c-0.8-1.5-1.2-3.1-1.3-4.8
		c-0.2,2.4,0.2,4.8,1.3,6.9C156.2,143.1,156.9,144.4,157.5,145.9z"/>
	<path d="M169.9,182.9l-5.9-0.1c0.3,0.7,0.2,1.5-0.2,2.2c1.6,0,4.4,0.1,6,0.1c0.3-1.7,0.4-3.4,0.3-5.2
		C170.1,180.9,170.1,181.9,169.9,182.9z"/>
	<path d="M160.3,177.3c-2.4-0.7-5.2-0.7-6.9-2.5c-1-1.1-1.6-2.6-1.7-4.2c-0.1,2.3,0,4.8,1.7,6.4c1.8,1.8,4.6,1.8,6.9,2.5
		c1.6,0.5,2.9,1.5,3.6,3C165,180.4,162.7,178,160.3,177.3z"/>
</g>
<path class="st2" d="M342.3,626.9c-1.1-0.7-2.3-1.3-3.4-1.8c-2.4-1.2-4.8-2.3-7.3-3.2c-11.5-4.4-23.9-6-36.5-5.7
	c-5,1.9-8.2,3.3-8.2,3.3l-6.4,1.9l-1.1,0.3c-0.1-0.7-0.1-1.4-0.2-2.1s-0.1-1.4-0.2-2.1c-2.2-21.2-4-43-4-43v-18.8v-2.2l-0.1-55.5
	l-1-18.3l-0.5-8.1l-0.1-1.5l-0.2-3.2L273,465c-0.2-0.6-0.4-1.2-0.6-1.8l0,0c-0.1-0.2-0.1-0.5-0.2-0.8c-0.2-1-0.5-2.3-0.8-3.7
	c-1.8-9.2-4.1-24.7-4.3-27.9c-0.2-4.2-3.8-29.3-3.8-29.3c-0.4-13.8-12-39.9-14.9-44.8s-6.2-34.4-5.1-36c0.6-0.9,0.9-5.9,1.2-10.5
	c0-0.5,0-1,0.1-1.6c0.1-3.6,0.2-6.7,0.2-6.7l11.4-2.3l3.1-0.6l0.2,0l0.1,0.2c0.3,0.6,1.4,2.6,2.6,5.1c0.1,0.3,0.3,0.6,0.4,0.9
	c0.1,0.1,0.1,0.3,0.2,0.4c2.2,4.9,4.8,11.4,4.7,15.1c-0.2,6.6,7.3,22.4,7.3,22.4c0.7,3.6,16.6,39.9,16.6,39.9s12.9,35.5,12.2,41.3
	s6.2,44.4,6.2,44.4l7.1,39.7c3.5,7.8,8,25.8,8,25.8l1.7,10.2l0.3,2l4.6,27.3l2.3,13.4c0,0,1,7.1,2.4,15c0.1,0.7,0.3,1.4,0.4,2.2
	c0.9,5.2,2.1,10.3,3.8,15.3C341.1,622,341.8,624.4,342.3,626.9z"/>
<path class="st6" d="M343.5,627.6c-0.4-0.2-0.8-0.5-1.2-0.7c-1.1-0.7-2.3-1.3-3.4-1.8c-2.4-1.2-4.8-2.3-7.3-3.2
	c-11.5-4.4-23.9-6-36.5-5.7c-5,1.9-8.2,3.3-8.2,3.3l-6.4,1.9c-0.1-0.7-0.1-1.4-0.2-2.1s-0.1-1.3-0.2-1.9c-2.2-21.2-4-42.8-4-42.8
	v-19v-2.2l-0.1-55.3l-1-17.5l-0.2-3.6l-0.1-2.5l-0.2-3.2l-0.2-3.3l-0.1-2.4V465c0,0,0-0.1-0.1-0.2c-0.2-0.5-0.4-1.4-0.7-2.4
	l-0.1-0.5c0-0.2-0.1-0.5-0.2-0.7l0,0c-1.9-8.5-4.6-26.9-4.8-30.4c-0.2-4.2-3.8-29.3-3.8-29.3c-0.4-13.8-12-39.9-14.9-44.8
	s-6.2-34.4-5.1-36c0.6-1,1-7.1,1.2-12.1c0-0.4,0-0.8,0-1.2c0.1-3.1,0.2-5.5,0.2-5.5l10.6-2.1l2.7-0.5l0.4-0.1l1-0.2
	c0,0,1.3,2.4,2.9,5.8l0.2,0.4c2.3,4.9,5,11.7,4.9,15.5c-0.2,6.6,7.3,22.4,7.3,22.4c0.7,3.6,16.6,39.9,16.6,39.9s12.9,35.5,12.2,41.3
	s6.2,44.4,6.2,44.4l7.1,39.7c3.5,7.8,8,25.8,8,25.8l1.6,9.5l0.3,1.9l3.6,21.5l3.4,19.8c0,0,1,7.1,2.4,15c0.1,0.7,0.3,1.4,0.4,2.2
	c0.9,5.2,2.1,10.4,3.8,15.4C342.3,622.2,343,624.9,343.5,627.6z"/>
<path class="st3" d="M334.5,114c0,0-3.8,4.9-7.3,4.9s-16.9-0.6-23.9-2.7s-41.3-3.8-41.3-3.8s-48.6,0.2-50.2-1.5s-30.2-10.4-33.1-9.8
	c-0.6,0.1-2.1,0.4-4.1,0.7l-2.3,0.4c-3.4,0.6-7.8,1.2-11.7,1.7c-4.9,0.6-9.1,0.9-10.5,0.4V100c0,0,5.6-8.2,6-10.6
	s5.1-36.4,17.5-48.6c5.1-9.8,13.4-17.5,23.5-22c16.8-7.3,33.5-13.5,33.5-13.5l2.9-0.4l9.5-1.4c0.3-0.3,0.6-0.5,0.9-0.8
	c2.6-2,10.6-6.3,20.9,3l1.8,2.9c0,0,31.9,7.5,46.6,33.5s15.5,51.5,16.6,63.2c0,0-0.7,3.3,0.7,4.6c0.5,0.5,1,1,1.5,1.5
	c0.1,0.1,0.3,0.3,0.4,0.4c0.4,0.4,0.8,0.9,1.1,1.2c0,0,0.1,0.1,0.1,0.1c0.1,0.1,0.2,0.2,0.2,0.3L334.5,114z"/>
<path class="st5" d="M334.5,114c0,0-3.8,4.9-7.3,4.9s-16.9-0.6-23.9-2.7s-41.3-3.8-41.3-3.8s-48.6,0.2-50.2-1.5s-30.2-10.4-33.1-9.8
	c-0.6,0.1-2.1,0.4-4.1,0.7l-0.5-3.2l-0.1-0.8c0,0,55.2-11.8,91.9-5.6s63.9,13.1,63.9,13.1s-0.7,3.3,0.7,4.6c0.5,0.5,1,1,1.5,1.5
	c0.1,0.1,0.3,0.3,0.4,0.4c0.4,0.4,0.8,0.9,1.1,1.2c0,0,0.1,0.1,0.1,0.1c0.1,0.1,0.2,0.2,0.2,0.3L334.5,114z"/>
<path class="st2" d="M329.5,122c-6.8,0.5-19.4-1.1-24.9-1.9c-1.6-0.2-3.1-0.5-4.6-0.9c-5.9-1.3-24-4.9-35-3.2
	c-13.3,2-50.8-1.6-50.8-1.6s-23.1-4.7-32.4-8.6c-3.4-1.4-9.1-1.9-14.8-1.1c-1.4,0.2-2.9,0.4-4.3,0.8c-7.7,1.8-14.3,6-13.1,13.1
	c-0.4-0.5-0.8-1.1-1.2-1.6c-0.5-6.5,1.5-10.4,4.3-12.6l0,0l0.7-0.3c3.4-1,6.9-1.7,10.4-2.2c0.6-0.1,1.1-0.2,1.7-0.2
	c9.9-1.3,24.3-1.6,36.5,4.5c0,0,11.3,5.3,18.9,5.3s69.9,0.6,84.5,4.7c2.9,0.8,5.9,1.5,8.9,1.9c5.3,0.7,10.7,0.2,15.8-1.5
	C330.1,118.3,329.9,120.2,329.5,122z"/>
<path class="st2" d="M334.5,114c0,0-3.8,4.9-7.3,4.9s-16.9-0.6-23.9-2.7s-41.3-3.8-41.3-3.8s-48.6,0.2-50.2-1.5s-30.2-10.4-33.1-9.8
	c-0.6,0.1-2.1,0.4-4.1,0.7l-2.3,0.4c-4,0-7.9,0.5-11.7,1.7c-4.9,0.6-9.1,0.9-10.5,0.4v-0.8c1-0.6,2.1-1.1,3.3-1.6
	c6.7-1.9,13.7-3,20.7-3.2c8.7-0.3,18.9,0.7,27.9,5.2c0,0,11.3,5.3,18.9,5.3s69.9,0.5,84.5,4.7c2.9,0.8,5.9,1.5,8.9,1.9
	c6.6,0.8,13.2-0.1,19.3-2.8c0,0,0.1,0.1,0.1,0.1c0.1,0.1,0.2,0.2,0.2,0.3L334.5,114z"/>
<path class="st3" d="M149.7,118.4c0,0-12.2-9.3,3.6-15.5c0,0,27.7-8.6,48.6,2c0,0,11.3,5.3,18.9,5.3s69.9,0.6,84.5,4.7
	c2.9,0.8,5.9,1.5,8.9,1.9c7.8,0.9,15.6-0.6,22.5-4.3c1-0.6,1.9-0.8,2.2-0.5c0.9,1.1,0.2,7.5-7.8,8.7c-6.2,1-20.5-0.9-26.4-1.8
	c-1.5-0.2-3.1-0.5-4.6-0.9c-5.9-1.3-24-4.9-35-3.2c-13.3,2-50.8-1.6-50.8-1.6s-23.1-4.7-32.4-8.6S146.3,104.2,149.7,118.4z"/>
<path class="st2" d="M252.6,20.8c-1-1.4-13.9-11.7-19.1-15.9l9.5-1.4c0.3-0.3,0.6-0.5,0.9-0.8C250.7,9.9,252.6,20.8,252.6,20.8z"/>
<polygon class="st2" points="210.9,76 206.7,82.2 222.7,81.6 223.1,74.7 "/>
<polygon class="st2" points="308.6,83.4 310.5,89.1 320.7,90.7 316.3,84 "/>
<path class="st2" d="M133.5,272.8c1.1,1.8,36.9,49,46.4,47.7C189.4,319.2,133.5,272.8,133.5,272.8z"/>
<path class="st2" d="M253.7,315.9c0,0,8.7,8.4,7.5,11.6S253.7,315.9,253.7,315.9z"/>
<path class="st2" d="M158.3,373.4c0,0-7.6,35.9-3.6,37S158.3,373.4,158.3,373.4z"/>
<path class="st2" d="M256.6,512.7c1.3,3.6,11.8,27.3,14.2,28.6S256.6,512.7,256.6,512.7z"/>
<path class="st2" d="M379.3,415.5c-0.4,1.3-9.5,8.7-7.5,11.5S379.3,415.5,379.3,415.5z"/>
<path class="st2" d="M308.6,481.9c-0.2,0.9-2,20,1.5,23.7S308.6,481.9,308.6,481.9z"/>
<path class="st2" d="M401.9,581c-2.6,1.5-5.4,2.9-8.1,4.2c-3,1.5-6,2.8-9.1,4.2c-1.2,0.5-2.4,1-3.6,1.5c-1.8,0.8-3.7,1.5-5.5,2.2
	c-5.5,2.1-10.7,4-15.4,5.6c-1.8,0.6-3.6,1.2-5.2,1.7c-8.2,2.6-13.6,4-13.6,4c-1.2-0.3-2.5-0.4-3.8-0.3c-0.4,0-0.7,0-1.1,0
	c-1.7,0.1-3.4,0.3-5,0.6c-11.2,2-27,7.6-36.5,11.3c-5,1.9-8.2,3.3-8.2,3.3l-6.4,1.9l-1.1,0.3c-6.9,2.1-16.6,5.1-20.1,6.3
	c-5.6,2-54.6,12.2-54.6,12.2c-4.5,1.2-9,2.1-13.7,2.5c-11.4,1-22.8,1.3-34.2,0.8c-11.5,0.7-30-1.8-40.8-3.5l-1.7-0.3
	c-4.2-0.7-6.8-1.2-6.8-1.2l1.4-1.9l28.7-39.6l0.2-0.2l26.7-36.9l1-1.3l2.4-3.3c0,0,1.5-2,7.1-2.1c0.7,0,1.4,0,2.2,0
	c4.7,0.4,9.4,1.3,13.9,2.8l1.3,0.4c19.4,5.5,49.3,4.2,49.3,4.2s18.6-3,33.3-4.8l1.1-0.1c4.8-0.7,9.6-1.1,14.4-1.2
	c8.9,0.2,28.2-4.5,28.2-4.5c4.1-0.9,5.9-1.6,8.2-3.3c0.3-0.2,0.6-0.5,1-0.7c1-0.8,2.1-1.7,3.6-2.8c2.7-2.1,6.5-4.9,12.5-8.8
	c0.5-0.3,1.1-0.7,1.7-1s1.3-0.8,2.1-1.1c5.8-2.7,11.9-4.7,18.1-6c5.2-1.1,10.5-1.8,15.8-2.2h0.8c15-0.8,30.3,1.8,39.3,10.2
	c1.6,1.5,2.9,3.2,4.1,5c0.5,0.9,1,1.8,1.5,2.7c0.8,1.8,1.4,3.7,1.8,5.6c0.1,0.4,0.1,0.7,0.2,1.1c0,0.1,0,0.2,0,0.3
	c0,0.3,0.1,0.6,0.1,0.9C430.1,561.4,417.7,572.2,401.9,581z"/>
<path class="st4" d="M107.5,636.3c0,0,32.4,6,49.3,4.9c0,0,31.1,1.6,47.9-3.3c0,0,49-10.2,54.6-12.2s27.5-8.6,27.5-8.6
	s42.6-17.8,54.6-14.9c0,0,94.3-24.4,87.6-57.3s-66.3-25.5-85-13.1s-16,13.7-25.3,15.7c0,0-19.3,4.7-28.2,4.5s-48.8,6.2-48.8,6.2
	s-31.3,1.5-50.6-4.5s-23.1-0.7-23.1-0.7L107.5,636.3z"/>
<path class="st2" d="M177.7,550.8c0,0,0,0.1,0,0.1c-0.1,0.7-0.3,1.5-0.6,2.2c-3.8,9.4-25.6,34.8-25.6,34.8c-1,3-2.2,6-3.6,8.8
	c-3,6.1-6.5,12-10.4,17.5c-5.8,8.4-12.1,16.3-18.8,23.9h-0.1c-0.9,0.6-1.8,1.2-2.7,1.8c-2.4,1.4-5.9,3.1-9.2,3.3c-0.6,0-1.1,0-1.7,0
	c0.4,0,0.7-0.1,1-0.1l-1.2-0.4l-1.7-0.5c-2.8-0.9-5.6-1.8-8.3-2.9l-1.7-0.6c-2.7-1-5.3-2.1-7.8-3.3l-1.7-0.8
	c-2.7-1.2-5.3-2.5-7.8-3.9c-0.9-0.5-1.8-1-2.7-1.5c-2.7-1.5-5.4-3.1-8-4.8c-2.8-1.8-5.5-3.6-8.1-5.5c-2-3.7-3.7-7-4.6-8.8
	c-1.6-3.3-1.8-8-1.6-11.4c0-0.3,0-0.7,0.1-1c0.2-2.1,0.4-3.6,0.4-3.6c-1.5-2-2.8-4.1-4-6.2c-0.7-1.1-1.1-2.3-1.1-3.6
	c0-0.5,0-1-0.1-1.5c-0.8-3.2-4.1-8.6-7.1-12c-2.3-2.5-2.4-11.9-2.2-18.5c0.1-4,0.4-6.9,0.4-6.9c-0.4-0.3-0.8-0.7-0.9-1.2
	c-0.8-2.2-1.3-4.5-1.6-6.8c0-0.3-0.1-0.7-0.1-1c-0.6-4.6-0.9-9.2-0.9-9.2c-7.4-5.4-10.9-13.8-12.6-21.3l-0.2-1
	c-0.9-4.6-1.3-9.3-1.1-14c0-0.5,0-0.8,0-1s0-0.2,0-0.2s1-21.7,3.7-30.1c0.1-0.4,0.2-0.7,0.3-1c0.2-0.5,0.5-1,0.8-1.5
	c1-1.3,1.7-3.8,2.3-6.8c0.4-2.1,0.8-4.3,1-6.6c0.2-1.9,0.4-3.8,0.6-5.5c0.4-4.7,0.5-8.3,0.5-8.3l-1.8-9.1c-0.5-2.5-0.9-5-1.2-7.5
	c0-0.3-0.1-0.7-0.1-1c-0.5-4.6-0.6-9.3-0.2-14c0-0.3,0-0.7,0.1-1c0.8-10.6,3.5-20.9,8.2-30.5l0.5-1c0.7-1.3,1.4-2.6,2.1-3.9
	c0.5-1,1.1-1.9,1.7-2.8c1.5-2.5,3.2-4.9,5-7.2c0.3-0.3,0.5-0.7,0.8-1c3.1-3.9,6.6-7.4,10.4-10.7c10.1-8.7,19.4-12.5,27.8-12.7
	c36.8-1.3,57.5,63.8,60.8,75.2c0.3,1.1,0.5,1.7,0.5,1.7s14.9,14.9,10.6,21.5c-0.8,1.4-1.4,3.1-1.5,4.7c-1.2,8.8,2.2,23.3,2.2,23.3
	s1.2,4,4.8,13.6l1.1,2.8c2.2,6,2.8,16.1,1.5,25.1c-1.2,8.6-4.1,16.3-8.8,18.2c-9.5,4-6.9,8-4.7,11.3c1.3,2.4,2.4,4.8,3.2,7.4
	c1.4,3.7,2.6,7.6,3.1,9.1c0.1,0.4,0.2,0.7,0.2,0.7c1.3-0.5,2.7-0.9,4.1-1.1c1.8-0.2,3.6-0.1,3.9,1.5c0.2,0.8,1.2,1.8,2.7,2.8
	C169.8,547.7,177.7,550.8,177.7,550.8z"/>
<path class="st1" d="M175.6,550.8L175.6,550.8c-0.1,0.8-0.3,1.5-0.6,2.2c-3.8,9.4-25.6,34.9-25.6,34.9c-1,3-2.2,6-3.6,8.8
	c-2.4,4.9-5.1,9.7-8.2,14.3c-6.3,9.5-13.2,18.4-20.8,26.9l-0.2,0.2c0,0-0.9,0.7-2.3,1.5c-2.5,1.6-5.3,2.8-8.1,3.4l-1.2-0.4l-1.7-0.5
	c-2.8-0.9-5.6-1.8-8.3-2.9l-1.7-0.6c-2.7-1-5.3-2.1-7.8-3.3l-1.7-0.8c-2.7-1.2-5.3-2.5-7.8-3.9c-0.9-0.5-1.8-1-2.7-1.5
	c-2.7-1.5-5.4-3.1-8-4.8c-2.8-1.8-5.5-3.6-8.1-5.5c-1.2-0.9-2.4-1.8-3.6-2.7c-1.3-2.6-2.4-4.7-3.1-6.1c-1.6-3.3-1.8-8-1.6-11.4
	c0-0.3,0-0.7,0.1-1c0.2-2.1,0.4-3.6,0.4-3.6s-0.8-1.1-1.8-2.6c-0.6-0.8-1.1-1.8-1.7-2.7c-1-1.8-1.8-3.5-1.6-4.5c0-0.2,0-0.3,0-0.5
	c0-0.3-0.1-0.7-0.2-1c-0.8-3.2-4.1-8.6-7.2-12c-2.3-2.5-2.4-11.9-2.2-18.5c0-0.3,0-0.7,0-1c0.1-3.5,0.3-5.9,0.3-5.9
	c-1.1-0.5-2-4.1-2.6-8l-0.2-1c-0.6-4.6-0.9-9.2-0.9-9.2c-7.4-5.4-10.9-13.8-12.6-21.3c-1.1-5.3-1.6-10.6-1.3-16c0-0.2,0-0.2,0-0.2
	s0.9-21.8,3.6-30.2c0.1-0.4,0.2-0.7,0.3-1c0.2-0.5,0.5-1,0.9-1.5c1.5-2.1,2.5-7.2,3.2-12.4l0.1-1c0.8-7,1.1-13.9,1.1-13.9l-1.9-9.1
	c-0.5-2.5-0.9-5-1.2-7.5c-0.1-0.3-0.1-0.7-0.1-1c-0.5-4.6-0.6-9.3-0.2-14c0-0.3,0-0.7,0.1-1c0.8-10.6,3.5-20.9,8.2-30.5
	c0.2-0.3,0.3-0.7,0.5-1c1.3-2.6,2.7-5.1,4.3-7.6c0.5-0.9,1.1-1.7,1.7-2.5c0.9-1.3,1.9-2.6,2.8-3.9l0.8-1c3.1-3.9,6.5-7.4,10.3-10.6
	c11-9.4,21-13.1,30-12.7c35.4,1.3,55.4,64,58.6,75.2c0.3,1.1,0.5,1.7,0.5,1.7s14.9,14.9,10.6,21.5c-0.8,1.4-1.4,3.1-1.5,4.7
	c-1.2,8.8,2.2,23.3,2.2,23.3s1.2,4,4.8,13.6c0.3,0.9,0.7,1.8,1,2.8c2.2,6,2.8,16.1,1.5,25.1c-1.2,8.7-4.1,16.3-8.8,18.2
	c-9.5,4-6.9,8-4.7,11.3c1.3,2.4,2.4,4.8,3.2,7.4c1.7,4.7,3.3,9.7,3.3,9.7c0.7-0.3,1.3-0.5,2-0.7c1.4-0.5,2.9-0.6,4.3-0.5
	c0.8,0.1,1.5,0.7,1.7,1.5c0.3,1.2,2.3,2.7,4.9,4.1C168.7,547.8,172.1,549.4,175.6,550.8z"/>
<path class="st2" d="M43.9,454.6c3.5-0.2,40.6-14.6,48.2-9.7s55,36.8,55,36.8s-29.7-38.8-55.5-47.9S43.9,454.6,43.9,454.6z"/>
<path class="st2" d="M97.3,513.2c0,0,37.1,7.5,42.8,12.6L97.3,513.2z"/>
<path class="st2" d="M90.2,568.8c-0.5,0.5-14,30.8-12.9,30.8s12.6-18,12.6-18L90.2,568.8z"/>
<path class="st2" d="M115.5,532.5c0,0-10.9,3.8-9.6,4.2S115.1,534.2,115.5,532.5z"/>
<path class="st2" d="M104.6,578.2c1.8,3.8,7.6,15.3,8.9,13.5S104.6,578.2,104.6,578.2z"/>
<path class="st2" d="M240.9,275.5l-1.6,2.2c0,0-12.4-8.7-17.5-13.1s-17.1,15.6-26.6,21.1s-25.5,6.9-25.5,6.9s-12.4-12.4-12-16
	s-5.8-4.7-6.2-7.3s-2.6-9.8-5.5-13.5c-1.5-1.9-1.8-7.9-1.6-13.2c1-0.2,1.6-0.3,1.6-0.3c1.6-2.8,3.5-5.4,5.8-7.6
	c3.3-2.9,8.4-20.8,8.4-20.8c2.9-9.8,8.7-6.9,8.7-6.9c0,14.9,15.3,20.4,22.9,26.6s19.7,22.2,29.1,25.5
	C228.9,261.8,238,272,240.9,275.5z"/>
<path class="st1" d="M240.9,273.3l-1.6,2.2c0,0-12.4-8.7-17.5-13.1s-17.1,15.6-26.6,21.1s-25.5,6.9-25.5,6.9s-12.4-12.4-12-16
	s-5.8-4.7-6.2-7.3s-2.6-9.8-5.5-13.5c-1.5-1.9-1.8-7.9-1.6-13.2l1.6-0.3c1.6-2.8,3.5-5.4,5.8-7.6c3.3-2.9,8.4-20.8,8.4-20.8
	c2.9-9.8,8.7-6.9,8.7-6.9c0,14.9,15.3,20.4,22.9,26.6c7.6,6.2,19.7,22.2,29.1,25.5C228.9,259.6,238,269.8,240.9,273.3z"/>
<path class="st2" d="M241.8,276.2c0,0-10.7,5.8-19.1,6.4c-1.1,0.1-2.2,0-3.3-0.2l0,0c0,0,9.2-6.9,17.8-8.3L241.8,276.2z"/>
<path class="st2" d="M263.7,305.9c0,0-13.5-5.3-18,2.7c0.1-3.6,0.2-6.7,0.2-6.7l14.8-2.9c0,0,1.4,2.6,3.1,6.2
	C263.7,305.6,263.7,305.9,263.7,305.9z"/>
<path class="st6" d="M219.4,282.4c0,0,16.2-9.7,24-8.9c8.2,0.9,24,1.5,24,1.5s-5.5,12.4-4.7,14.9s0.9,14.9,0.9,14.9
	s-16.4-6.4-19.1,5.5c0,0-8.9-13.3-14.9-17.3C225.6,290.1,222.1,286.5,219.4,282.4z"/>
<path class="st2" d="M311,293.7c-4.7,0-21.5-10.6-25.1-17.5s-8.7,0.7-13.5,3.3c-3,1.6-14.9-1.8-21.3-4.3c3.2-2.2,10.5-8.4,12.6-9.9
	c2.5-1.8,5.1-31.3,5.1-31.3c9.1-4.7,18.9,38.2,18.9,38.2s17.1,5.1,18.6,8.7c0.3,0.7,1.6,2,3.5,3.5
	C311.8,289.5,312.9,293.7,311,293.7z"/>
<path class="st1" d="M311,291.5c-4.7,0-21.5-10.6-25.1-17.5s-8.7,0.7-13.5,3.3c-3,1.6-12.5-1.5-18.9-4c3.2-2.2,8.1-8.7,10.2-10.2
	c2.5-1.8,5.1-31.3,5.1-31.3c9.1-4.7,18.9,38.2,18.9,38.2s17.1,5.1,18.6,8.7c0.3,0.7,1.6,2,3.5,3.5
	C311.8,287.4,312.9,291.5,311,291.5z"/>
<path class="st9" d="M375.7,610.5l158.3-132c1.6-1.3,3.6-2,5.7-2l59.1,1.5c0,0,4.1,3-1.9,9.6L447.5,610.1c-1.6,1.3-3.6,2.1-5.7,2.1
	l-64.6,2.1c-1.2,0-2.3-0.9-2.3-2.2C374.9,611.6,375.2,610.9,375.7,610.5z"/>
<path class="st4" d="M452.3,594.2c0,0,34.6,49.5,73,3.5s27.3-70.3,15.7-71.5S463.7,575.3,452.3,594.2z"/>
</svg>
