<?xml version="1.0" encoding="utf-8"?>
<!-- Generator: Adobe Illustrator 24.0.2, SVG Export Plug-In . SVG Version: 6.00 Build 0)  -->
<svg version="1.1" id="bb6491d8-974c-4727-a107-afc356bed175"
	 xmlns="http://www.w3.org/2000/svg" xmlns:xlink="http://www.w3.org/1999/xlink" x="0px" y="0px" viewBox="0 0 932.4 646.2"
	 style="enable-background:new 0 0 932.4 646.2;" xml:space="preserve">
<style type="text/css">
	.st0{fill:#E6E6E6;}
	.st1{fill:#6C63FF;stroke:#6C63FF;stroke-miterlimit:10;}
	.st2{fill:#F55F44;}
	.st3{fill:#4D8AF0;}
	.st4{fill:#3AD29F;}
	.st5{fill:#FDD835;}
	.st6{opacity:0.1;}
	.st7{fill:#FFFFFF;}
	.st8{opacity:0.5;}
	.st9{fill:url(#Path_14_1_);}
	.st10{fill:#706A6A;}
	.st11{fill:url(#Path_16_1_);}
	.st12{fill:url(#Path_17_1_);}
	.st13{fill:url(#Ellipse_2_1_);}
</style>
<title>Container ship</title>
<g id="Group_13" transform="translate(-68 -276)">
	<g id="undraw_heavy_box_agqi" transform="translate(283.027 367.67)">
		<path id="Path_20" class="st0" d="M640.5,442.7c36.3-90.8,25.3-192.2-21.5-270.1l-490.5,67.9l470-98
			C400.4-104.5,14.9,59.4,52,371.3L640.5,442.7z"/>
	</g>
	<g id="undraw_Container_ship_ok1c" transform="translate(68 276)">
		<rect id="Rectangle_1" x="171.9" y="164.4" class="st1" width="11" height="146.6"/>
		<rect id="Rectangle_2" x="406.5" y="266.8" class="st2" width="109" height="66"/>
		<rect id="Rectangle_3" x="515.5" y="266.8" class="st3" width="109" height="66"/>
		<rect id="Rectangle_4" x="624.5" y="266.8" class="st4" width="109" height="66"/>
		<rect id="Rectangle_5" x="405.7" y="332.8" class="st3" width="109" height="66"/>
		<rect id="Rectangle_6" x="297.6" y="332.8" class="st2" width="109" height="66"/>
		<rect id="Rectangle_7" x="515.5" y="332.8" class="st4" width="109" height="66"/>
		<rect id="Rectangle_8" x="624.5" y="332.8" class="st5" width="109" height="66"/>
		<g id="Group_2" transform="translate(346.365 215.309)" class="st6">
			<rect id="Rectangle_9" x="79.7" y="51.1" width="14.3" height="66"/>
			<rect id="Rectangle_10" x="107.5" y="51.1" width="14.3" height="66"/>
			<rect id="Rectangle_11" x="135.3" y="51.1" width="14.3" height="66"/>
		</g>
		<g id="Group_3" transform="translate(435.007 215.309)" class="st6">
			<rect id="Rectangle_12" x="100" y="51.1" width="14.3" height="66"/>
			<rect id="Rectangle_13" x="127.8" y="51.1" width="14.3" height="66"/>
			<rect id="Rectangle_14" x="155.7" y="51.1" width="14.3" height="66"/>
		</g>
		<g id="Group_4" transform="translate(523.649 215.309)" class="st6">
			<rect id="Rectangle_15" x="120.3" y="51.1" width="14.3" height="66"/>
			<rect id="Rectangle_16" x="148.2" y="51.1" width="14.3" height="66"/>
			<rect id="Rectangle_17" x="176" y="51.1" width="14.3" height="66"/>
		</g>
		<g id="Group_5" transform="translate(346.365 269.012)" class="st6">
			<rect id="Rectangle_18" x="79.7" y="63.4" width="14.3" height="66"/>
			<rect id="Rectangle_19" x="107.5" y="63.4" width="14.3" height="66"/>
			<rect id="Rectangle_20" x="135.3" y="63.4" width="14.3" height="66"/>
		</g>
		<g id="Group_6" transform="translate(257.724 269.012)" class="st6">
			<rect id="Rectangle_21" x="59.3" y="63.4" width="14.3" height="66"/>
			<rect id="Rectangle_22" x="87.2" y="63.4" width="14.3" height="66"/>
			<rect id="Rectangle_23" x="115" y="63.4" width="14.3" height="66"/>
		</g>
		<g id="Group_7" transform="translate(435.007 269.012)" class="st6">
			<rect id="Rectangle_24" x="100" y="63.4" width="14.3" height="66"/>
			<rect id="Rectangle_25" x="127.8" y="63.4" width="14.3" height="66"/>
			<rect id="Rectangle_26" x="155.7" y="63.4" width="14.3" height="66"/>
		</g>
		<g id="Group_8" transform="translate(523.649 269.012)" class="st6">
			<rect id="Rectangle_27" x="120.3" y="63.4" width="14.3" height="66"/>
			<rect id="Rectangle_28" x="148.2" y="63.4" width="14.3" height="66"/>
			<rect id="Rectangle_29" x="176" y="63.4" width="14.3" height="66"/>
		</g>
		<rect id="Rectangle_30" x="21.8" y="476.1" class="st1" width="843.8" height="25.9"/>
		<path id="Path_9" class="st1" d="M788.8,373.3H292.1c-6.6,0-11.9-5.4-12-12v-73.1L86.6,266.6V489h714.1V361.4
			C800.7,368,795.4,373.3,788.8,373.3L788.8,373.3z"/>
		<rect id="Rectangle_31" x="86.6" y="290.6" class="st7" width="72.8" height="41.9"/>
		<circle id="Ellipse_1" class="st1" cx="177.4" cy="163.9" r="20.9"/>
		<path id="Path_10" class="st3" d="M95.6,497.1c7.4-20,30.7-30.5,52.1-29.6s41.2,10.5,60.3,20s38.9,19.2,60.3,20.3
			c47.4,2.3,87.3-38,134.5-42.6c56.1-5.4,106,40.3,162.3,42.2c9.9,0.3,20-0.8,29.2-4.6c7.9-3.4,14.9-8.7,22.4-13
			c37.9-21.5,85.3-13.4,127.2-1.5s85.4,27.2,128,18.1"/>
		<path id="Path_11" class="st3" d="M0.2,535.8c7.4-20,30.7-30.5,52.1-29.6s41.2,10.5,60.3,20s38.9,19.2,60.3,20.3
			c47.4,2.3,87.3-38,134.5-42.6c56.1-5.4,106,40.3,162.3,42.2c9.9,0.3,20-0.8,29.2-4.6c7.9-3.4,14.9-8.7,22.4-13
			c37.9-21.5,85.3-13.4,127.2-1.5c41.9,11.9,85.4,27.2,128,18.1"/>
		<path id="Path_12" class="st3" d="M101.9,585.4c7.4-20,30.7-30.5,52.1-29.6s41.2,10.5,60.3,20s38.9,19.2,60.3,20.3
			c47.4,2.3,87.3-38,134.5-42.6c56.1-5.4,106,40.3,162.3,42.2c9.9,0.3,20-0.8,29.2-4.6c7.9-3.4,14.9-8.7,22.4-13
			c37.9-21.5,85.3-13.4,127.2-1.5c41.9,11.9,85.4,27.2,128,18.1"/>
		<path id="Path_13" class="st3" d="M153.9,634.3c7.4-20,30.7-30.5,52.1-29.6s41.2,10.5,60.3,20c19.1,9.5,38.9,19.2,60.3,20.3
			c47.4,2.3,87.3-38,134.5-42.6c56.1-5.4,106,40.3,162.3,42.2c9.9,0.3,20-0.8,29.2-4.6c7.9-3.4,14.9-8.7,22.4-13
			c37.9-21.5,85.3-13.4,127.2-1.5c41.9,11.9,85.4,27.2,128,18.1"/>
		<g id="Group_9" transform="translate(189.34 54.029)" class="st8">
			
				<linearGradient id="Path_14_1_" gradientUnits="userSpaceOnUse" x1="-126.7525" y1="584.0382" x2="-126.7525" y2="585.2676" gradientTransform="matrix(50.282 0 0 -38.392 6447.9062 22483.7129)">
				<stop  offset="0" style="stop-color:#808080;stop-opacity:0.251"/>
				<stop  offset="0.535" style="stop-color:#808080;stop-opacity:0.122"/>
				<stop  offset="1" style="stop-color:#808080;stop-opacity:0.102"/>
			</linearGradient>
			<path id="Path_14" class="st9" d="M73.1,61.3l-6.9-1.2c0.2-1.7,0.5-3.4,0.8-5.1c1.2-14.7-9.1-30.3-23.4-34.2l1.8-6.8
				c13.1,3.6,23.2,14.5,27,27.3c6.8-11.7,18.3-20,31.6-22.9l1.4,6.9c-15.1,3-27.9,15.8-31.4,30.8C73.8,57.9,73.5,59.6,73.1,61.3
				L73.1,61.3z"/>
		</g>
		<path id="Path_15" class="st10" d="M262.6,111.9l-5.9-1c0.2-1.5,0.4-2.9,0.7-4.3c1-12.6-7.7-25.9-20-29.2l1.6-5.8
			c11.2,3,19.8,12.4,23.1,23.3c5.9-10,15.6-17.1,27-19.6l1.2,5.9c-12.9,2.6-23.8,13.5-26.9,26.3C263.3,109,263,110.5,262.6,111.9z"
			/>
		<g id="Group_10" transform="translate(317.515 16.225)" class="st8">
			
				<linearGradient id="Path_16_1_" gradientUnits="userSpaceOnUse" x1="-254.0358" y1="622.3558" x2="-254.0358" y2="623.5852" gradientTransform="matrix(32.431 0 0 -24.762 8331.6152 15446.6611)">
				<stop  offset="0" style="stop-color:#808080;stop-opacity:0.251"/>
				<stop  offset="0.535" style="stop-color:#808080;stop-opacity:0.122"/>
				<stop  offset="1" style="stop-color:#808080;stop-opacity:0.102"/>
			</linearGradient>
			<path id="Path_16" class="st11" d="M92,35.9l-4.4-0.8c0.1-1.1,0.3-2.2,0.5-3.3c0.8-9.5-5.8-19.5-15.1-22l1.2-4.4
				c8.4,2.5,15,9.2,17.4,17.6c4.4-7.6,11.8-12.9,20.4-14.8l0.9,4.4c-10,2.3-17.8,9.9-20.3,19.9C92.5,33.7,92.3,34.8,92,35.9L92,35.9
				z"/>
		</g>
		<g id="Group_11" transform="translate(537.36 0)" class="st8">
			
				<linearGradient id="Path_17_1_" gradientUnits="userSpaceOnUse" x1="-472.3256" y1="638.7311" x2="-472.3256" y2="639.9605" gradientTransform="matrix(32.431 0 0 -24.761 15461.4141 15847.7764)">
				<stop  offset="0" style="stop-color:#808080;stop-opacity:0.251"/>
				<stop  offset="0.535" style="stop-color:#808080;stop-opacity:0.122"/>
				<stop  offset="1" style="stop-color:#808080;stop-opacity:0.102"/>
			</linearGradient>
			<path id="Path_17" class="st12" d="M142.5,32.2l-4.4-0.8c0.1-1.1,0.3-2.2,0.5-3.3c0.8-9.5-5.8-19.5-15.1-22l1.2-4.4
				c8.4,2.5,15,9.2,17.4,17.6c4.4-7.6,11.8-12.9,20.4-14.8l0.9,4.4c-10,2.3-17.8,9.9-20.3,19.9C142.9,30,142.8,31.1,142.5,32.2z"/>
		</g>
		<path id="Path_18" class="st10" d="M409.9,46.8l-2.9-0.5c0.1-0.7,0.2-1.4,0.3-2.1c0.4-6.5-3.7-12.4-9.8-14.3l0.8-2.8
			c5.5,1.6,9.7,5.9,11.3,11.4c2.9-4.9,7.7-8.4,13.2-9.6l0.6,2.9c-6.5,1.5-11.6,6.5-13.2,12.9C410.2,45.3,410.1,46.1,409.9,46.8z"/>
		<path id="Path_19" class="st10" d="M680.2,26.8l-2.9-0.5c0.1-0.7,0.2-1.4,0.3-2.1c0.4-6.5-3.7-12.4-9.8-14.3l0.8-2.8
			c5.5,1.6,9.7,5.9,11.3,11.4c2.9-4.9,7.7-8.4,13.2-9.6l0.6,2.9c-6.5,1.5-11.6,6.5-13.2,12.9C680.5,25.4,680.3,26.1,680.2,26.8z"/>
		<g id="Group_12" transform="translate(57.902 7.855)" class="st8">
			
				<linearGradient id="Ellipse_2_1_" gradientUnits="userSpaceOnUse" x1="4.4227" y1="630.1178" x2="4.4227" y2="631.3472" gradientTransform="matrix(108.706 0 0 -108.706 -400.4772 68634.75)">
				<stop  offset="0" style="stop-color:#808080;stop-opacity:0.251"/>
				<stop  offset="0.535" style="stop-color:#808080;stop-opacity:0.122"/>
				<stop  offset="1" style="stop-color:#808080;stop-opacity:0.102"/>
			</linearGradient>
			<circle id="Ellipse_2" class="st13" cx="80.3" cy="70.3" r="66.8"/>
		</g>
		<circle id="Ellipse_3" class="st5" cx="138.2" cy="78.2" r="61.8"/>
	</g>
</g>
</svg>
